{"title":"The.Twilight.Saga.Eclipse.2010.DvDscr.H264.FEEL-FREE","uid":5774542,"size":1273247075,"categoryP":"video","categoryS":"movies","magnet":"?xt=urn:btih:5ae92f393b3e00886499df45dbcc532b77d64c14&amp;dn=The.Twilight.Saga.Eclipse.2010.DvDscr.H264.FEEL-FREE&amp;tr=udp%3A%2F%2Ftracker.openbittorrent.com%3A80&amp;tr=udp%3A%2F%2Fopen.demonii.com%3A1337&amp;tr=udp%3A%2F%2Ftracker.coppersurfer.tk%3A6969&amp;tr=udp%3A%2F%2Fexodus.desync.com%3A6969","seeders":0,"leechers":0,"uploader":"neon","files":-1,"time":1282178163,"description":"Genre:Fantasy | Romance | Thriller\nLanguage:English\nIMDb: http://www.imdb.com/title/tt1325004/\nVideo Source:Prism:Thanks.\n...........................................\nGeneral\nComplete name : The.Twilight.Saga.Eclipse.2010.DvDscr.H264.FEEL-FREE\nFormat : MPEG-4\nFormat profile : Base Media\nCodec ID : isom\nFile size : 1.19 GiB\nDuration : 2h 3mn\nOverall bit rate : 1 370 Kbps\n.............................................\nVideo\nID : 1\nFormat : MPEG-4 Visual\nFormat profile : Simple@L1\nFormat settings, BVOP : No\nFormat settings, QPel : No\nFormat settings, GMC : No warppoints\nFormat settings, Matrix : Default (H.263)\nCodec ID : 20\nDuration : 2h 3mn\nBit rate mode : Variable\nBit rate : 1 199 Kbps\nWidth : 652 pixels\nHeight : 352 pixels\nDisplay aspect ratio : 1.852\nFrame rate mode : Constant\nFrame rate : 29.970 fps\nResolution : 24 bits\nColorimetry : 4:2:0\nScan type : Progressive\nBits/(Pixel*Frame) : 0.174\nStream size : 1.04 GiB (88%)\n.................................................\n\nAudio\nID : 2\nFormat : AAC\nFormat/Info : Advanced Audio Codec\nFormat version : Version 4\nFormat profile : LC\nFormat settings, SBR : No\nCodec ID : 40\nDuration : 2h 3mn\nBit rate mode : Variable\nBit rate : 165 Kbps\nChannel(s) : 2 channels\nChannel positions : L R\nSampling rate : 48.0 KHz\nResolution : 16 bits\nStream size : 146 MiB (12%)\n..................................................\nPlot:\nAs a string of mysterious killings grips Seattle, Bella, whose high school graduation is fast approaching, is forced to choose between her love for vampire Edward and her friendship with werewolf Jacob.\n...................................................\n &lt;a href=&quot;\nhttp://www.starshare.ro/bitbucket/The.Twilight.Saga.Eclipse.2010.DvDscr.H264.FEEL-FREE.mp4_thumbs_%5B2010.08.19_13.07.56%5D.jpg&quot; rel=&quot;nofollow&quot; target=&quot;_NEW&quot;&gt;\nhttp://www.starshare.ro/bitbucket/The.Twilight.Saga.Eclipse.2010.DvDscr.H264.FEEL-FREE.mp4_thumbs_%5B2010.08.19_13.07.56%5D.jpg&lt;/a&gt;\n &lt;a href=&quot;\nhttp://www.starshare.ro/bitbucket/The.Twilight.Saga.Eclipse.2010.DvDscr.H264.FEEL-FREE.mp4_snapshot_00.23.51_%5B2010.08.19_13.08.05%5D.jpg&quot; rel=&quot;nofollow&quot; target=&quot;_NEW&quot;&gt;\nhttp://www.starshare.ro/bitbucket/The.Twilight.Saga.Eclipse.2010.DvDscr.H264.FEEL-FREE.mp4_snapshot_00.23.51_%5B2010.08.19_13.08.05%5D.jpg&lt;/a&gt;\n &lt;a href=&quot;\nhttp://www.starshare.ro/bitbucket/The.Twilight.Saga.Eclipse.2010.DvDscr.H264.FEEL-FREE.mp4_snapshot_00.36.29_%5B2010.08.19_13.08.08%5D.jpg&quot; rel=&quot;nofollow&quot; target=&quot;_NEW&quot;&gt;\nhttp://www.starshare.ro/bitbucket/The.Twilight.Saga.Eclipse.2010.DvDscr.H264.FEEL-FREE.mp4_snapshot_00.36.29_%5B2010.08.19_13.08.08%5D.jpg&lt;/a&gt;\n &lt;a href=&quot;\nhttp://www.starshare.ro/bitbucket/The.Twilight.Saga.Eclipse.2010.DvDscr.H264.FEEL-FREE.mp4_snapshot_00.44.44_%5B2010.08.19_13.08.03%5D.jpg&quot; rel=&quot;nofollow&quot; target=&quot;_NEW&quot;&gt;\nhttp://www.starshare.ro/bitbucket/The.Twilight.Saga.Eclipse.2010.DvDscr.H264.FEEL-FREE.mp4_snapshot_00.44.44_%5B2010.08.19_13.08.03%5D.jpg&lt;/a&gt;\n &lt;a href=&quot;\nhttp://www.starshare.ro/bitbucket/The.Twilight.Saga.Eclipse.2010.DvDscr.H264.FEEL-FREE.mp4_snapshot_01.32.01_%5B2010.08.19_13.08.14%5D.jpg&quot; rel=&quot;nofollow&quot; target=&quot;_NEW&quot;&gt;\nhttp://www.starshare.ro/bitbucket/The.Twilight.Saga.Eclipse.2010.DvDscr.H264.FEEL-FREE.mp4_snapshot_01.32.01_%5B2010.08.19_13.08.14%5D.jpg&lt;/a&gt;","torrent":{"xt":"urn:btih:5ae92f393b3e00886499df45dbcc532b77d64c14","amp;dn":"The.Twilight.Saga.Eclipse.2010.DvDscr.H264.FEEL-FREE","amp;tr":["udp%3A%2F%2Ftracker.openbittorrent.com%3A80","udp%3A%2F%2Fopen.demonii.com%3A1337","udp%3A%2F%2Ftracker.coppersurfer.tk%3A6969","udp%3A%2F%2Fexodus.desync.com%3A6969"],"infoHash":"5ae92f393b3e00886499df45dbcc532b77d64c14","infoHashBuffer":{"type":"Buffer","data":[90,233,47,57,59,62,0,136,100,153,223,69,219,204,83,43,119,214,76,20]},"announce":[],"urlList":[]}}